{
    "asset" : {
        "generator" : "Khronos glTF Blender I/O v3.2.40",
        "version" : "2.0"
    },
    "scene" : 0,
    "scenes" : [
        {
            "name" : "Scene",
            "nodes" : [
                0
            ]
        }
    ],
    "nodes" : [
        {
            "mesh" : 0,
            "name" : "nav-0",
            "scale" : [
                0.1770908236503601,
                0.1770908236503601,
                0.1770908236503601
            ],
            "translation" : [
                -0.9275261163711548,
                -0.05275030434131622,
                -0.5099196434020996
            ]
        }
    ],
    "materials" : [
        {
            "doubleSided" : true,
            "name" : "Material.001",
            "pbrMetallicRoughness" : {
                "baseColorFactor" : [
                    0.11032569408416748,
                    0.8000000715255737,
                    0.10496526211500168,
                    1
                ],
                "metallicFactor" : 0,
                "roughnessFactor" : 0.5
            }
        }
    ],
    "meshes" : [
        {
            "name" : "Plane",
            "primitives" : [
                {
                    "attributes" : {
                        "POSITION" : 0,
                        "NORMAL" : 1,
                        "TEXCOORD_0" : 2
                    },
                    "indices" : 3,
                    "material" : 0
                }
            ]
        }
    ],
    "accessors" : [
        {
            "bufferView" : 0,
            "componentType" : 5126,
            "count" : 65,
            "max" : [
                9.942134857177734,
                1.955002784729004,
                20.00572395324707
            ],
            "min" : [
                -17.65532684326172,
                0,
                -5.327508449554443
            ],
            "type" : "VEC3"
        },
        {
            "bufferView" : 1,
            "componentType" : 5126,
            "count" : 65,
            "type" : "VEC3"
        },
        {
            "bufferView" : 2,
            "componentType" : 5126,
            "count" : 65,
            "type" : "VEC2"
        },
        {
            "bufferView" : 3,
            "componentType" : 5123,
            "count" : 138,
            "type" : "SCALAR"
        }
    ],
    "bufferViews" : [
        {
            "buffer" : 0,
            "byteLength" : 780,
            "byteOffset" : 0
        },
        {
            "buffer" : 0,
            "byteLength" : 780,
            "byteOffset" : 780
        },
        {
            "buffer" : 0,
            "byteLength" : 520,
            "byteOffset" : 1560
        },
        {
            "buffer" : 0,
            "byteLength" : 276,
            "byteOffset" : 2080
        }
    ],
    "buffers" : [
        {
            "byteLength" : 2356,
            "uri" : "data:application/octet-stream;base64,"
        }
    ]
}
